<svg width="1023" height="957" viewBox="0 0 1023 957" fill="none" xmlns="http://www.w3.org/2000/svg">
<rect x="306.9" y="154.961" width="184.14" height="245.52" fill="#CDC3A3"/>
<rect x="552.42" y="134.501" width="184.14" height="265.98" fill="#CDC3A3"/>
<path d="M818.4 484.995L223.2 484.995L223.2 257.145C223.2 214.132 229.981 178.386 243.544 149.904C256.912 121.229 275.222 99.8199 298.472 85.6762C321.722 71.3387 348.072 64.1699 377.522 64.1699C401.741 64.1699 422.472 68.8199 439.716 78.1199C456.766 87.4199 470.619 99.9168 481.275 115.611C491.931 131.304 499.584 148.839 504.234 168.214H510.047C511.209 147.095 517.7 126.848 529.519 107.473C541.144 87.9043 557.612 71.9199 578.925 59.5199C600.237 47.1199 626.006 40.9199 656.231 40.9199C687.038 40.9199 714.744 48.3793 739.35 63.298C763.763 78.2168 783.041 100.692 797.184 130.723C811.328 160.754 818.4 198.536 818.4 244.067V484.995ZM728.306 377.173V261.214C728.306 222.076 720.847 193.886 705.928 176.642C690.816 159.204 671.441 150.486 647.803 150.486C630.172 150.486 614.284 154.845 600.141 163.564C585.803 172.282 574.566 184.682 566.428 200.764C558.097 216.845 553.931 236.026 553.931 258.307V377.173H728.306ZM476.334 377.173V270.514C476.334 251.914 472.944 235.154 466.162 220.236C459.187 205.317 449.403 193.595 436.809 185.07C424.022 176.351 408.909 171.992 391.472 171.992C368.416 171.992 349.428 180.129 334.509 196.404C319.591 212.486 312.131 236.414 312.131 268.189V377.173L476.334 377.173Z" fill="#009B9B"/>
<path fill-rule="evenodd" clip-rule="evenodd" d="M859.32 525.915L182.28 525.915L182.28 257.145C182.28 210.204 189.627 168.028 206.526 132.464C222.719 97.7939 245.979 69.7429 277.101 50.7797C307.286 32.1944 341.146 23.2499 377.522 23.2499C406.942 23.2499 434.677 28.9107 459.14 42.104L459.31 42.196C475.416 50.9807 489.58 62.0654 501.601 75.3755C516.34 54.5011 535.491 37.4482 558.346 24.1508C587.176 7.3772 620.401 -0.000120804 656.231 -0.000120804C693.969 -0.000120804 729.108 9.23492 760.565 28.307L760.688 28.3815C792.963 48.1055 817.212 77.2097 834.204 113.288C851.685 150.406 859.32 194.619 859.32 244.067V525.915ZM480.474 114.446C469.928 99.2974 456.342 87.1887 439.715 78.1199C422.472 68.8199 401.74 64.1699 377.522 64.1699C348.072 64.1699 321.722 71.3386 298.472 85.6761C275.222 99.8199 256.912 121.229 243.544 149.904C229.981 178.386 223.2 214.132 223.2 257.145L223.2 484.995L818.4 484.995V244.067C818.4 198.536 811.328 160.754 797.184 130.723C783.041 100.692 763.762 78.2168 739.35 63.298C714.744 48.3792 687.037 40.9199 656.231 40.9199C626.006 40.9199 600.237 47.1199 578.925 59.5199C557.612 71.9199 541.144 87.9043 529.519 107.473C528.571 109.027 527.657 110.587 526.778 112.152C516.938 129.665 511.39 147.88 510.133 166.798C510.101 167.269 510.073 167.741 510.047 168.214H504.234C504.208 168.106 504.182 167.997 504.156 167.889C499.499 148.643 491.872 131.217 481.275 115.611C481.01 115.22 480.743 114.832 480.474 114.446ZM436.809 185.07C424.022 176.351 408.909 171.992 391.472 171.992C368.415 171.992 349.428 180.129 334.509 196.404C319.59 212.486 312.131 236.414 312.131 268.189V377.173H476.334L476.334 270.514C476.334 251.914 472.944 235.154 466.162 220.236C459.187 205.317 449.403 193.595 436.809 185.07ZM435.414 336.253V270.514C435.414 257.067 433.004 246.257 429 237.367C424.902 228.679 419.797 222.967 413.871 218.956L413.757 218.879C408.606 215.367 401.765 212.912 391.472 212.912C379.311 212.912 371.462 216.65 364.673 224.055L364.508 224.235C359.207 229.95 353.051 242.149 353.051 268.189V336.253H435.414ZM621.402 198.527C614.071 202.985 607.896 209.444 602.94 219.239L602.851 219.414L602.761 219.587C598.06 228.662 594.851 241.092 594.851 258.307V336.253H687.386L687.386 261.214C687.386 225.488 680.241 209.503 674.992 203.426C667.87 195.215 659.897 191.406 647.803 191.406C637.271 191.406 628.902 193.904 621.613 198.397L621.402 198.527ZM705.928 176.642C720.847 193.886 728.306 222.076 728.306 261.214V377.173H553.931V258.307C553.931 236.026 558.097 216.845 566.428 200.764C574.565 184.682 585.803 172.282 600.14 163.564C614.284 154.845 630.172 150.486 647.803 150.486C671.44 150.486 690.815 159.204 705.928 176.642Z" fill="#007E7E"/>
<rect x="20.5" y="502.821" width="982" height="388.66" rx="194.33" fill="#009B9B" stroke="#007E7E" stroke-width="41"/>
<rect x="247.5" y="654.5" width="181.5" height="302.5" rx="82" fill="#9D3E3E"/>
<path d="M163.68 697.151C163.68 680.202 177.42 666.461 194.37 666.461H849.09C866.04 666.461 879.78 680.202 879.78 697.151V697.151C879.78 714.101 866.04 727.841 849.09 727.841H194.37C177.42 727.841 163.68 714.101 163.68 697.151V697.151Z" fill="#CDC3A3"/>
<rect x="268.754" y="653.568" width="182.059" height="18.5775" fill="#009B9B"/>
<rect x="265.039" y="666.45" width="198.16" height="22.293" fill="#CDC3A3"/>
</svg>
